<svg xmlns="http://www.w3.org/2000/svg" width="247.688" height="70.571" viewBox="0 0 247.688 70.571">
  <g id="mongodb" transform="translate(0 -0.203)">
    <path id="Path_113981" data-name="Path 113981" d="M427.814,57.845c-.223.045-.447.536-.447.8-.045,1.788-.089,6.526-.089,9.744a.331.331,0,0,0,.268.268c.67.045,2.279.089,3.665.089a9.566,9.566,0,0,0,3.665-.536,4.747,4.747,0,0,0,2.368-4.47c0-4.335-3.039-5.989-7.554-5.989A7.169,7.169,0,0,0,427.814,57.845Zm11.532,19.978c0-4.425-3.263-6.883-9.162-6.883-.268,0-2.146-.045-2.593.045-.134.045-.312.135-.312.269,0,3.173-.045,8.224.089,10.19a3.372,3.372,0,0,0,1.475,2.413,10.23,10.23,0,0,0,3.888.536C436.261,84.393,439.345,82.427,439.345,77.824ZM418.7,55.387c.447,0,1.787.134,5.229.134,3.263,0,5.855-.089,9.028-.089,3.888,0,9.252,1.385,9.252,7.2,0,2.86-2.011,5.14-4.648,6.257-.134.045-.134.134,0,.178,3.754.939,7.062,3.263,7.062,7.643,0,4.291-2.682,7.017-6.57,8.716a21.378,21.378,0,0,1-8.313,1.385c-2.28,0-8.4-.268-11.8-.178-.357-.135.313-1.744.625-2.011a8.343,8.343,0,0,0,2.28-.358c1.207-.312,1.341-.67,1.519-2.5.09-1.564.09-7.107.09-11.04,0-5.408.045-9.073,0-10.86-.044-1.385-.536-1.833-1.519-2.1-.76-.134-2.011-.313-3.04-.447-.224-.224.536-1.744.8-1.922Zm-25.789,27.8c1.073.849,3.174,1.206,5.051,1.206a9.9,9.9,0,0,0,7.151-2.548c2.369-2.145,4.022-5.452,4.022-10.726,0-5.051-1.922-9.163-5.855-11.576a15.811,15.811,0,0,0-8.4-1.966,6.7,6.7,0,0,0-2.5.312,1.314,1.314,0,0,0-.447.715c-.09.894-.09,7.777-.09,11.8,0,4.156,0,9.967.09,10.637a2.771,2.771,0,0,0,.983,2.146Zm-10.146-27.8c.849,0,4.112.134,5.676.134,2.816,0,4.827-.134,10.146-.134,4.469,0,8.224,1.206,10.905,3.486a14.492,14.492,0,0,1,4.961,11.442c0,6.749-3.084,10.638-6.168,12.872-3.083,2.279-7.106,3.62-12.827,3.62-3.039,0-8.268-.089-12.6-.134h-.045c-.223-.4.357-1.966.715-2.011a7.125,7.125,0,0,0,2.056-.4c.938-.358,1.117-.85,1.251-2.5.134-3.084.089-6.794.089-11,0-2.994.045-8.85-.045-10.727-.134-1.564-.8-1.966-2.145-2.235-.67-.134-1.564-.313-2.815-.447-.179-.313.625-1.7.849-1.966Z" transform="translate(-196.932 -28.457)" fill="#8e714e" fill-rule="evenodd"/>
    <path id="Path_113982" data-name="Path 113982" d="M174.378,95.97a8.989,8.989,0,0,1-2.9-.759,1.362,1.362,0,0,1-.358-.715c-.089-1.564-.089-6.034-.089-9.028a10.536,10.536,0,0,0-1.43-5.989,6.1,6.1,0,0,0-5.185-2.682c-1.966,0-4.6,1.341-6.794,3.218-.045.045-.4.358-.357-.134,0-.492.09-1.475.134-2.146a1.159,1.159,0,0,0-.313-.938,29.829,29.829,0,0,1-6.928,1.787c-1.072.224-1.341,1.252-.223,1.609h.045a9.916,9.916,0,0,1,2.636,1.162,1.39,1.39,0,0,1,.4,1.251c.045,3.352.045,8.492-.089,11.307-.045,1.117-.357,1.519-1.162,1.7l.09-.045a17.644,17.644,0,0,1-1.877.357,2.613,2.613,0,0,0,0,2.011c.492,0,3.084-.134,5.23-.134,2.95,0,4.469.134,5.229.134a2.91,2.91,0,0,0,.224-2.011,8.275,8.275,0,0,1-2.056-.313c-.8-.179-1.028-.581-1.073-1.519-.089-2.369-.089-7.375-.089-10.771a2.155,2.155,0,0,1,.536-1.654,6.762,6.762,0,0,1,4.157-1.519,4.621,4.621,0,0,1,3.084,1.028,4.4,4.4,0,0,1,1.43,2.815c.223,1.922.134,5.721.134,9.028,0,1.788-.134,2.235-.8,2.458a8.507,8.507,0,0,1-2.056.4,2.617,2.617,0,0,0,0,2.012c1.3,0,2.816-.134,5.051-.134,2.771,0,4.559.134,5.274.134a3.118,3.118,0,0,0,.134-1.922ZM186.758,78.9c-2.368,0-3.844,1.832-3.844,4.692,0,2.905,1.3,6.257,4.961,6.257a3.463,3.463,0,0,0,2.324-.894,5.918,5.918,0,0,0,1.431-4.112c0-3.709-1.833-5.944-4.872-5.944Zm-.313,19.754a3.842,3.842,0,0,0-1.922.492c-1.877,1.206-2.726,2.368-2.726,3.754a3.953,3.953,0,0,0,1.564,3.217,7.941,7.941,0,0,0,5.363,1.654c4.559,0,6.57-2.458,6.57-4.871a3.416,3.416,0,0,0-2.592-3.442,18.052,18.052,0,0,0-6.257-.8Zm.313,11.621a9.889,9.889,0,0,1-6.391-1.877A5.891,5.891,0,0,1,178,103.971a3.424,3.424,0,0,1,.894-2.235A23.7,23.7,0,0,1,183,98.429c.089-.045.134-.089.134-.179a.3.3,0,0,0-.179-.223,4.254,4.254,0,0,1-2.905-2.816v-.09c-.044-.268-.134-.536.269-.8.313-.223.76-.492,1.251-.8a18.365,18.365,0,0,0,2.056-1.342.327.327,0,0,0,.09-.268.3.3,0,0,0-.179-.223c-3.128-1.028-4.692-3.352-4.692-6.839a6.786,6.786,0,0,1,2.86-5.631,13.141,13.141,0,0,1,6.436-2.19h.134a13.705,13.705,0,0,1,4.916,1.073,8.273,8.273,0,0,0,2.906.447,3.868,3.868,0,0,0,3.128-1.161,2.428,2.428,0,0,1,.179.894,3.376,3.376,0,0,1-.581,2.056,2.539,2.539,0,0,1-1.966.849h-.224A9.959,9.959,0,0,1,195.473,81l-.178.09c-.045.09,0,.179.045.313l.045.09a16.494,16.494,0,0,1,.268,1.922c0,3.665-1.475,5.273-3.039,6.48a10.292,10.292,0,0,1-5.229,2.011,5.627,5.627,0,0,0-.626.045c-.223,0-.536.045-.581.045h-.045c-.357.089-1.251.536-1.251,1.3,0,.67.4,1.475,2.324,1.609.4.045.8.045,1.251.09a39.184,39.184,0,0,1,7.2.894A5.008,5.008,0,0,1,199,100.663c0,3.308-2.368,6.392-6.3,8.313a14.377,14.377,0,0,1-5.945,1.3Zm25.475-31.152a4.151,4.151,0,0,0-2.413.67c-1.743,1.073-2.637,3.218-2.637,6.347,0,5.855,2.95,9.967,7.151,9.967a4.548,4.548,0,0,0,3.084-1.073c1.3-1.073,1.967-3.218,1.967-6.213,0-5.81-2.905-9.7-7.151-9.7Zm.8,19.129c-7.6,0-10.324-5.587-10.324-10.816a9.676,9.676,0,0,1,4.424-8.492,13.453,13.453,0,0,1,6.839-2.011c5.81,0,9.877,4.156,9.877,10.146,0,4.067-1.609,7.285-4.693,9.251a12.394,12.394,0,0,1-6.123,1.922ZM133.394,79.121a4.152,4.152,0,0,0-2.414.67c-1.743,1.073-2.637,3.218-2.637,6.347,0,5.855,2.95,9.967,7.151,9.967a4.55,4.55,0,0,0,3.084-1.073c1.3-1.073,1.966-3.218,1.966-6.213,0-5.81-2.86-9.7-7.151-9.7Zm.8,19.129c-7.6,0-10.324-5.587-10.324-10.816a9.676,9.676,0,0,1,4.424-8.492,13.453,13.453,0,0,1,6.839-2.011c5.81,0,9.877,4.156,9.877,10.146,0,4.067-1.609,7.285-4.693,9.251A12.107,12.107,0,0,1,134.2,98.25ZM83.113,97.8a1.91,1.91,0,0,1-.134-1.028,1.51,1.51,0,0,1,.134-.67,16.489,16.489,0,0,0,1.966-.4c.894-.224,1.251-.715,1.3-1.832.135-2.682.135-7.777.09-11.308v-.09a1.354,1.354,0,0,0-.492-1.251,10.1,10.1,0,0,0-2.682-1.162c-.4-.133-.67-.357-.626-.625,0-.268.268-.581.849-.671a32.7,32.7,0,0,0,6.838-1.743,1.106,1.106,0,0,1,.224.715l-.045.491c-.045.492-.09,1.073-.09,1.654a.346.346,0,0,0,.357.313.629.629,0,0,0,.268-.09c2.86-2.235,5.452-3.039,6.793-3.039a5.786,5.786,0,0,1,5.185,3.173.336.336,0,0,0,.313.179.318.318,0,0,0,.268-.134c2.637-2.011,5.274-3.218,7.017-3.218,4.156,0,6.615,3.084,6.615,8.313,0,1.475,0,3.4-.045,5.14,0,1.564-.045,2.994-.045,4.022a1.406,1.406,0,0,0,.8,1.072,9.544,9.544,0,0,0,2.593.626h.045a3.585,3.585,0,0,1-.268,1.7,10.984,10.984,0,0,1-1.117-.045q-1.7-.089-3.4-.09c-2.771,0-4.2.045-5.587.134a4.361,4.361,0,0,1,0-1.7,13.877,13.877,0,0,0,1.7-.4c.894-.268,1.117-.671,1.162-1.833,0-.849.178-8.09-.09-9.833a4.406,4.406,0,0,0-4.559-3.888,7.926,7.926,0,0,0-4.558,1.743.8.8,0,0,0-.179.447v.045a20.584,20.584,0,0,1,.179,3.665v2.9c0,2.011-.045,3.889,0,5.318a1.31,1.31,0,0,0,1.073,1.386c.268.044.447.089.67.134.4.09.8.179,1.43.313a2.412,2.412,0,0,1-.045,1.251.857.857,0,0,1-.179.447c-1.519-.045-3.084-.09-5.363-.09-.67,0-1.833.045-2.816.045-.8,0-1.564.045-2.011.045a2.357,2.357,0,0,1-.135-.894,1.392,1.392,0,0,1,.179-.8,3.021,3.021,0,0,1,.626-.089c.536-.09.983-.179,1.43-.268.76-.223,1.028-.626,1.073-1.609a77.569,77.569,0,0,0-.045-10.235c-.536-2.592-2.011-3.888-4.38-3.888a8.2,8.2,0,0,0-4.558,1.744,1.443,1.443,0,0,0-.4,1.027v2.637c0,3.218,0,7.241.045,8.984a1.386,1.386,0,0,0,1.251,1.385,9.356,9.356,0,0,0,1.028.179l.8.134a3.748,3.748,0,0,1-.134,1.7c-.447,0-.983-.045-1.609-.045-.938-.045-2.145-.09-3.486-.09-1.564,0-2.682.045-3.576.09a10.8,10.8,0,0,0-1.653-.09Z" transform="translate(-42.627 -39.498)" fill="#442d22" fill-rule="evenodd"/>
    <path id="Path_113983" data-name="Path 113983" d="M28.953,78.232l-1.832-.626s.224-9.341-3.129-10.011c-2.234-2.593.358-109.947,8.4-.358,0,0-2.771,1.385-3.263,3.754a34.472,34.472,0,0,0-.179,7.241Z" transform="translate(-11.976 -9.2)" fill="#fff" fill-rule="evenodd"/>
    <path id="Path_113984" data-name="Path 113984" d="M28.953,78.232l-1.832-.626s.224-9.341-3.129-10.011c-2.234-2.593.358-109.947,8.4-.358,0,0-2.771,1.385-3.263,3.754a34.472,34.472,0,0,0-.179,7.241Z" transform="translate(-11.976 -9.2)" fill="#a6a385" fill-rule="evenodd"/>
    <path id="Path_113985" data-name="Path 113985" d="M34.086,60.194S50.131,49.646,46.376,27.7c-3.62-15.955-12.156-21.184-13.1-23.2A22.563,22.563,0,0,1,31.27.573l.671,44.38c0,.045-1.386,13.587,2.146,15.242" transform="translate(-16.125 -0.191)" fill="#fff" fill-rule="evenodd"/>
    <path id="Path_113986" data-name="Path 113986" d="M34.086,60.194S50.131,49.646,46.376,27.7c-3.62-15.955-12.156-21.184-13.1-23.2A22.563,22.563,0,0,1,31.27.573l.671,44.38c0,.045-1.386,13.587,2.146,15.242" transform="translate(-16.125 -0.191)" fill="#499d4a" fill-rule="evenodd"/>
    <path id="Path_113987" data-name="Path 113987" d="M14.207,60.584S-.856,50.3.038,32.2c.849-18.1,11.486-27,13.542-28.6A4.162,4.162,0,0,0,15.056.2c.939,2.011.76,30.079.894,33.386C16.351,46.327,15.234,58.171,14.207,60.584Z" transform="translate(0 0)" fill="#fff" fill-rule="evenodd"/>
    <path id="Path_113988" data-name="Path 113988" d="M14.207,60.584S-.856,50.3.038,32.2c.849-18.1,11.486-27,13.542-28.6A4.162,4.162,0,0,0,15.056.2c.939,2.011.76,30.079.894,33.386C16.351,46.327,15.234,58.171,14.207,60.584Z" transform="translate(0 0)" fill="#58aa50" fill-rule="evenodd"/>
  </g>
</svg>
