<svg xmlns="http://www.w3.org/2000/svg" width="70.547" height="63.428" viewBox="0 0 70.547 63.428">
  <g id="react" transform="translate(-0.754 -0.784)">
    <path id="Path_113970" data-name="Path 113970" d="M.754,32.384c0,5.328,5.2,10.3,13.4,13.1-1.638,8.245-.293,14.891,4.2,17.481,4.615,2.662,11.491.819,18.017-4.886,6.361,5.474,12.791,7.629,17.277,5.032,4.611-2.669,6.013-9.766,4.33-18.269C66.522,42.023,71.3,37.782,71.3,32.384c0-5.2-5.212-9.706-13.3-12.492,1.812-8.854.277-15.339-4.4-18.035-4.508-2.6-11.012-.334-17.467,5.284C29.415,1.178,22.976-.642,18.3,2.062c-4.5,2.607-5.789,9.374-4.146,17.772C6.233,22.6.754,27.2.754,32.384Z" transform="translate(0 0)" fill="#fff"/>
    <path id="Path_113971" data-name="Path 113971" d="M66.756,32.582q-1-.343-2.017-.636.169-.685.312-1.376c1.527-7.411.528-13.381-2.88-15.347C58.9,13.339,53.556,15.3,48.158,20q-.8.7-1.56,1.432-.51-.489-1.038-.959c-5.658-5.024-11.329-7.14-14.734-5.169-3.265,1.89-4.232,7.5-2.858,14.526q.205,1.043.463,2.075c-.8.228-1.577.471-2.319.729-6.633,2.312-10.869,5.937-10.869,9.7,0,3.883,4.547,7.778,11.456,10.139q.84.286,1.694.53-.277,1.111-.492,2.237c-1.31,6.9-.287,12.381,2.97,14.26,3.364,1.94,9.009-.054,14.506-4.859q.652-.57,1.307-1.205.825.8,1.694,1.545c5.325,4.582,10.584,6.432,13.837,4.549,3.361-1.945,4.452-7.832,3.034-14.994q-.162-.821-.376-1.675.595-.176,1.165-.364c7.183-2.38,11.855-6.227,11.855-10.162,0-3.773-4.373-7.422-11.139-9.751Z" transform="translate(-10.472 -9.923)" fill="#53c1de"/>
    <path id="Path_113972" data-name="Path 113972" d="M72.173,56.914c-.342.113-.694.223-1.052.329a62.817,62.817,0,0,0-3.173-7.937A62.79,62.79,0,0,0,71,41.485c.641.186,1.263.381,1.862.588,5.8,2,9.334,4.947,9.334,7.22,0,2.422-3.819,5.566-10.021,7.621Zm-2.573,5.1a22.663,22.663,0,0,1,.3,8.269c-.373,2.011-1.124,3.352-2.051,3.889-1.974,1.143-6.2-.343-10.75-4.261q-.783-.674-1.575-1.436A62.894,62.894,0,0,0,60.776,61.8,62.479,62.479,0,0,0,69.261,60.5q.191.774.339,1.516ZM43.578,73.973c-1.929.681-3.465.7-4.394.165C37.208,73,36.386,68.6,37.507,62.7q.2-1.046.458-2.08a62.935,62.935,0,0,0,8.443,1.222,65.127,65.127,0,0,0,5.378,6.645q-.583.564-1.194,1.1a22.668,22.668,0,0,1-7.013,4.391ZM34.541,56.9a22.674,22.674,0,0,1-7.307-3.882C25.68,51.686,24.9,50.365,24.9,49.293c0-2.281,3.4-5.191,9.074-7.169q1.068-.371,2.156-.678a64.189,64.189,0,0,0,3.054,7.913,65.165,65.165,0,0,0-3.092,8.025q-.779-.223-1.547-.484ZM37.57,36.278c-1.178-6.018-.4-10.557,1.572-11.7,2.1-1.213,6.731.517,11.616,4.854.312.277.626.568.94.868a64.138,64.138,0,0,0-5.337,6.6,65.4,65.4,0,0,0-8.36,1.3q-.24-.96-.431-1.93ZM64.6,42.951q-.919-1.587-1.905-3.133c2,.252,3.914.588,5.713,1A57.093,57.093,0,0,1,66.4,46.211q-.868-1.648-1.8-3.26ZM53.575,32.217a57.24,57.24,0,0,1,3.687,4.451q-3.7-.175-7.4,0C51.074,35.061,52.321,33.57,53.575,32.217ZM42.483,42.969q-.922,1.6-1.768,3.24c-.779-1.849-1.446-3.666-1.991-5.421,1.788-.4,3.694-.727,5.68-.975q-1,1.555-1.921,3.156Zm1.978,15.994a56.989,56.989,0,0,1-5.774-.928c.553-1.786,1.235-3.643,2.031-5.531q.85,1.642,1.776,3.242.945,1.632,1.967,3.217Zm9.188,7.594c-1.269-1.369-2.534-2.883-3.77-4.511q1.8.071,3.666.071,1.916,0,3.782-.084A56.915,56.915,0,0,1,53.649,66.558Zm12.775-14.15a56.84,56.84,0,0,1,2.1,5.511,56.8,56.8,0,0,1-5.844,1q.993-1.575,1.923-3.188.945-1.639,1.817-3.32ZM62.288,54.39q-1.424,2.473-3.006,4.85c-1.859.133-3.78.2-5.737.2s-3.846-.061-5.672-.179q-1.622-2.37-3.062-4.857t-2.673-5.048q1.237-2.575,2.665-5.051h0q1.427-2.475,3.038-4.836c1.863-.141,3.774-.215,5.7-.215s3.853.074,5.715.216q1.594,2.356,3.019,4.82t2.7,5.027Q63.725,51.9,62.288,54.39ZM67.809,24.5c2.1,1.21,2.914,6.089,1.6,12.488q-.13.625-.282,1.246a64.117,64.117,0,0,0-8.377-1.323,62.873,62.873,0,0,0-5.3-6.61q.7-.679,1.441-1.321c4.625-4.025,8.948-5.615,10.918-4.479Z" transform="translate(-17.447 -16.883)" fill="#fff"/>
    <path id="Path_113973" data-name="Path 113973" d="M113.639,94.665a5.595,5.595,0,1,1-5.595,5.595,5.595,5.595,0,0,1,5.595-5.595" transform="translate(-77.541 -67.85)" fill="#53c1de"/>
  </g>
</svg>
